<svg xmlns="http://www.w3.org/2000/svg" version="1.1" xmlns:xlink="http://www.w3.org/1999/xlink" xmlns:svgjs="http://svgjs.dev/svgjs" width="1500" height="560" preserveAspectRatio="none" viewBox="0 0 1500 560"><g mask="url(&quot;#SvgjsMask3800&quot;)" fill="none"><rect width="1500" height="560" x="0" y="0" fill="rgba(13, 27, 42, 1)"></rect><rect width="120" height="120" clip-path="url(&quot;#SvgjsClipPath3801&quot;)" x="1420.53" y="271.55" fill="url(&quot;#SvgjsPattern3802&quot;)" transform="rotate(331.95, 1480.53, 331.55)"></rect><circle r="46.666666666666664" cx="88.79" cy="135.5" fill="rgba(27, 38, 59, 1)"></circle><path d="M761.51 267.65a5.6 5.6 0 1 0 3.72 10.56 5.6 5.6 0 1 0-3.72-10.56zM766.83 282.74a5.6 5.6 0 1 0 3.72 10.56 5.6 5.6 0 1 0-3.72-10.56zM772.14 297.83a5.6 5.6 0 1 0 3.72 10.56 5.6 5.6 0 1 0-3.72-10.56zM777.45 312.92a5.6 5.6 0 1 0 3.72 10.57 5.6 5.6 0 1 0-3.72-10.57z" stroke="rgba(224, 225, 221, 1)" stroke-width="2.68" stroke-dasharray="3, 2"></path><rect width="312" height="312" clip-path="url(&quot;#SvgjsClipPath3803&quot;)" x="720.8" y="241.9" fill="url(&quot;#SvgjsPattern3804&quot;)" transform="rotate(137.49, 876.8, 397.9)"></rect><rect width="240" height="240" clip-path="url(&quot;#SvgjsClipPath3805&quot;)" x="353.76" y="72.73" fill="url(&quot;#SvgjsPattern3806&quot;)" transform="rotate(30.12, 473.76, 192.73)"></rect><rect width="72" height="72" clip-path="url(&quot;#SvgjsClipPath3807&quot;)" x="1019.27" y="510.27" fill="url(&quot;#SvgjsPattern3808&quot;)" transform="rotate(28.73, 1055.27, 546.27)"></rect><rect width="285.44" height="285.44" clip-path="url(&quot;#SvgjsClipPath3809&quot;)" x="1129.22" y="-25.55" fill="url(&quot;#SvgjsPattern3810&quot;)" transform="rotate(184.68, 1271.94, 117.17)"></rect><rect width="307.84" height="307.84" clip-path="url(&quot;#SvgjsClipPath3811&quot;)" x="-113.37" y="186.68" fill="url(&quot;#SvgjsPattern3812&quot;)" transform="rotate(168.83, 40.55, 340.6)"></rect><path d="M558.56 387.7 L539.1899999999999 457.62L505.2541997198196 379.0391997198196z" fill="rgba(224, 225, 221, 1)"></path><rect width="60" height="60" clip-path="url(&quot;#SvgjsClipPath3813&quot;)" x="1.46" y="440.33" fill="url(&quot;#SvgjsPattern3814&quot;)" transform="rotate(160.84, 31.46, 470.33)"></rect><rect width="89.4" height="89.4" clip-path="url(&quot;#SvgjsClipPath3815&quot;)" x="88.72" y="472.83" fill="url(&quot;#SvgjsPattern3816&quot;)" transform="rotate(34.02, 133.42, 517.53)"></rect><rect width="60" height="60" clip-path="url(&quot;#SvgjsClipPath3817&quot;)" x="1153.49" y="188.16" fill="url(&quot;#SvgjsPattern3818&quot;)" transform="rotate(136.06, 1183.49, 218.16)"></rect><rect width="124.2" height="124.2" clip-path="url(&quot;#SvgjsClipPath3819&quot;)" x="1049.86" y="214.27" fill="url(&quot;#SvgjsPattern3820&quot;)" transform="rotate(337.96, 1111.96, 276.37)"></rect></g><defs><mask id="SvgjsMask3800"><rect width="1500" height="560" fill="#ffffff"></rect></mask><pattern x="0" y="0" width="6" height="6" patternUnits="userSpaceOnUse" id="SvgjsPattern3802"><path d="M0 6L3 0L6 6" stroke="rgba(119, 141, 169, 1)" fill="none"></path></pattern><clipPath id="SvgjsClipPath3801"><circle r="30" cx="1480.53" cy="331.55"></circle></clipPath><pattern x="0" y="0" width="6" height="6" patternUnits="userSpaceOnUse" id="SvgjsPattern3804"><path d="M3 1L3 5M1 3L5 3" stroke="rgba(224, 225, 221, 1)" fill="none" stroke-width="1.75"></path></pattern><clipPath id="SvgjsClipPath3803"><circle r="78" cx="876.8" cy="397.9"></circle></clipPath><pattern x="0" y="0" width="6" height="6" patternUnits="userSpaceOnUse" id="SvgjsPattern3806"><path d="M3 1L3 5M1 3L5 3" stroke="rgba(27, 38, 59, 1)" fill="none" stroke-width="1"></path></pattern><clipPath id="SvgjsClipPath3805"><circle r="60" cx="473.76" cy="192.73"></circle></clipPath><pattern x="0" y="0" width="6" height="6" patternUnits="userSpaceOnUse" id="SvgjsPattern3808"><path d="M0 6L3 0L6 6" stroke="rgba(65, 90, 119, 1)" fill="none"></path></pattern><clipPath id="SvgjsClipPath3807"><circle r="18" cx="1055.27" cy="546.27"></circle></clipPath><pattern x="0" y="0" width="8.92" height="8.92" patternUnits="userSpaceOnUse" id="SvgjsPattern3810"><path d="M0 8.92L4.46 0L8.92 8.92" stroke="rgba(119, 141, 169, 1)" fill="none"></path></pattern><clipPath id="SvgjsClipPath3809"><circle r="71.36" cx="1271.94" cy="117.17"></circle></clipPath><pattern x="0" y="0" width="307.84" height="11.84" patternUnits="userSpaceOnUse" id="SvgjsPattern3812"><rect width="307.84" height="5.92" x="0" y="0" fill="rgba(224, 225, 221, 1)"></rect><rect width="307.84" height="5.92" x="0" y="5.92" fill="rgba(0, 0, 0, 0)"></rect></pattern><clipPath id="SvgjsClipPath3811"><circle r="76.96" cx="40.55" cy="340.6"></circle></clipPath><pattern x="0" y="0" width="6" height="6" patternUnits="userSpaceOnUse" id="SvgjsPattern3814"><path d="M3 1L3 5M1 3L5 3" stroke="rgba(65, 90, 119, 1)" fill="none" stroke-width="1"></path></pattern><clipPath id="SvgjsClipPath3813"><circle r="15" cx="31.46" cy="470.33"></circle></clipPath><pattern x="0" y="0" width="89.4" height="8.94" patternUnits="userSpaceOnUse" id="SvgjsPattern3816"><rect width="89.4" height="4.47" x="0" y="0" fill="rgba(224, 225, 221, 1)"></rect><rect width="89.4" height="4.47" x="0" y="4.47" fill="rgba(0, 0, 0, 0)"></rect></pattern><clipPath id="SvgjsClipPath3815"><circle r="22.35" cx="133.42" cy="517.53"></circle></clipPath><pattern x="0" y="0" width="6" height="6" patternUnits="userSpaceOnUse" id="SvgjsPattern3818"><path d="M0 6L3 0L6 6" stroke="rgba(27, 38, 59, 1)" fill="none"></path></pattern><clipPath id="SvgjsClipPath3817"><circle r="15" cx="1183.49" cy="218.16"></circle></clipPath><pattern x="0" y="0" width="12.42" height="12.42" patternUnits="userSpaceOnUse" id="SvgjsPattern3820"><path d="M6.21 1L6.21 11.42M1 6.21L11.42 6.21" stroke="rgba(119, 141, 169, 1)" fill="none" stroke-width="2.74"></path></pattern><clipPath id="SvgjsClipPath3819"><circle r="31.05" cx="1111.96" cy="276.37"></circle></clipPath></defs></svg>