<svg xmlns="http://www.w3.org/2000/svg" version="1.1" xmlns:xlink="http://www.w3.org/1999/xlink" xmlns:svgjs="http://svgjs.dev/svgjs" width="1500" height="650" preserveAspectRatio="none" viewBox="0 0 1500 650"><g mask="url(&quot;#SvgjsMask1008&quot;)" fill="none"><rect width="1500" height="650" x="0" y="0" fill="rgba(13, 27, 42, 1)"></rect><path d="M820.92 722.46C943.86 663.31 891.91 266.52 1119.75 265.85 1347.6 265.18 1551.25 550.65 1717.42 558.35" stroke="rgba(51,121,194,0.58)" stroke-width="2"></path><path d="M660.08 657.74C777.85 602.57 726.9 225.95 948.49 224.79 1170.09 223.63 1369.15 460.54 1525.32 465.29" stroke="rgba(51,121,194,0.58)" stroke-width="2"></path><path d="M433.07 712.64C548.81 701.51 500.53 469.98 821.58 456.96 1142.64 443.94 1391.66 175.45 1598.61 170.96" stroke="rgba(51,121,194,0.58)" stroke-width="2"></path><path d="M539.67 704.67C707 694.68 809.87 395.64 1129.48 385.78 1449.09 375.92 1565.46 212.13 1719.29 210.28" stroke="rgba(51,121,194,0.58)" stroke-width="2"></path><path d="M621.36 680.5C752.62 622.65 697.78 210.02 948.23 208.93 1198.69 207.84 1425.56 470.38 1601.98 475.43" stroke="rgba(51,121,194,0.58)" stroke-width="2"></path></g><defs><mask id="SvgjsMask1008"><rect width="1500" height="650" fill="#ffffff"></rect></mask></defs></svg>