<svg xmlns="http://www.w3.org/2000/svg" version="1.1" xmlns:xlink="http://www.w3.org/1999/xlink" xmlns:svgjs="http://svgjs.dev/svgjs" width="1440" height="900" preserveAspectRatio="none" viewBox="0 0 1440 900"><g mask="url(&quot;#SvgjsMask1261&quot;)" fill="none"><rect width="1440" height="900" x="0" y="0" fill="rgba(13, 27, 42, 1)"></rect><g transform="translate(374.4, 234)" stroke-linecap="round"><path d="M410 307 L410 593" stroke-width="15" stroke="rgba(65, 90, 119, 1)"></path><path d="M430 402.7 L430 497.3" stroke-width="15" stroke="rgba(224, 225, 221, 1)"></path><path d="M450 353.26 L450 546.74" stroke-width="15" stroke="rgba(224, 225, 221, 1)"></path><path d="M470 261.24 L470 638.76" stroke-width="15" stroke="rgba(65, 90, 119, 1)"></path><path d="M490 382 L490 518" stroke-width="15" stroke="rgba(224, 225, 221, 1)"></path><path d="M510 290.1 L510 609.9" stroke-width="15" stroke="rgba(65, 90, 119, 1)"></path><path d="M530 288.23 L530 611.77" stroke-width="15" stroke="rgba(65, 90, 119, 1)"></path><path d="M550 337.18 L550 562.82" stroke-width="15" stroke="rgba(224, 225, 221, 1)"></path><path d="M570 341.75 L570 558.25" stroke-width="15" stroke="rgba(224, 225, 221, 1)"></path><path d="M590 390.57 L590 509.43" stroke-width="15" stroke="rgba(65, 90, 119, 1)"></path><path d="M610 365.65 L610 534.35" stroke-width="15" stroke="rgba(224, 225, 221, 1)"></path><path d="M630 428.08 L630 471.92" stroke-width="15" stroke="rgba(65, 90, 119, 1)"></path><path d="M650 301.74 L650 598.26" stroke-width="15" stroke="rgba(224, 225, 221, 1)"></path><path d="M670 322.19 L670 577.81" stroke-width="15" stroke="rgba(224, 225, 221, 1)"></path><path d="M690 286.38 L690 613.63" stroke-width="15" stroke="rgba(224, 225, 221, 1)"></path><path d="M710 406.03 L710 493.97" stroke-width="15" stroke="rgba(65, 90, 119, 1)"></path><path d="M730 376.6 L730 523.4" stroke-width="15" stroke="rgba(65, 90, 119, 1)"></path><path d="M750 267.03 L750 632.97" stroke-width="15" stroke="rgba(224, 225, 221, 1)"></path><path d="M770 361.64 L770 538.36" stroke-width="15" stroke="rgba(65, 90, 119, 1)"></path><path d="M790 327.57 L790 572.42" stroke-width="15" stroke="rgba(224, 225, 221, 1)"></path><path d="M810 415.36 L810 484.64" stroke-width="15" stroke="rgba(65, 90, 119, 1)"></path><path d="M830 421.06 L830 478.94" stroke-width="15" stroke="rgba(224, 225, 221, 1)"></path><path d="M850 393.76 L850 506.24" stroke-width="15" stroke="rgba(65, 90, 119, 1)"></path><path d="M870 311.65 L870 588.35" stroke-width="15" stroke="rgba(65, 90, 119, 1)"></path><path d="M890 323.62 L890 576.38" stroke-width="15" stroke="rgba(65, 90, 119, 1)"></path><path d="M910 299.28 L910 600.72" stroke-width="15" stroke="rgba(65, 90, 119, 1)"></path><path d="M930 280.92 L930 619.08" stroke-width="15" stroke="rgba(65, 90, 119, 1)"></path><path d="M950 360.72 L950 539.28" stroke-width="15" stroke="rgba(65, 90, 119, 1)"></path><path d="M970 340.28 L970 559.72" stroke-width="15" stroke="rgba(224, 225, 221, 1)"></path><path d="M990 294.4 L990 605.6" stroke-width="15" stroke="rgba(65, 90, 119, 1)"></path><path d="M1010 259.81 L1010 640.19" stroke-width="15" stroke="rgba(224, 225, 221, 1)"></path><path d="M1030 301.44 L1030 598.56" stroke-width="15" stroke="rgba(65, 90, 119, 1)"></path></g></g><defs><mask id="SvgjsMask1261"><rect width="1440" height="900" fill="#ffffff"></rect></mask></defs></svg>