<svg xmlns="http://www.w3.org/2000/svg" version="1.1" xmlns:xlink="http://www.w3.org/1999/xlink" xmlns:svgjs="http://svgjs.dev/svgjs" width="1500" height="560" preserveAspectRatio="none" viewBox="0 0 1500 560"><g mask="url(&quot;#SvgjsMask1006&quot;)" fill="none"><rect width="1500" height="560" x="0" y="0" fill="rgba(13, 27, 42, 1)"></rect><path d="M715.52 666.65C812.79 662.72 788.08 507.99 1068.69 502.67 1349.31 497.35 1591.02 297.59 1775.04 295.47" stroke="rgba(224, 225, 221, 1)" stroke-width="2"></path><path d="M717.24 637.29C832.68 633.62 905.54 468.27 1142.58 456.95 1379.61 445.63 1445.99 224.31 1567.91 216.15" stroke="rgba(224, 225, 221, 1)" stroke-width="2"></path><path d="M879.73 640.12C976.59 605.24 911.58 334.05 1134.17 316.35 1356.76 298.65 1511.11 177.62 1643.05 176.35" stroke="rgba(224, 225, 221, 1)" stroke-width="2"></path><path d="M706.57 622.63C832.28 554.53 769.52 136.45 1002.14 133.07 1234.77 129.69 1436.72 337.3 1593.29 340.27" stroke="rgba(224, 225, 221, 1)" stroke-width="2"></path><path d="M474.77 657.77C598.63 622.66 559.46 275.61 819.72 275.44 1079.98 275.27 1324.58 539.55 1509.62 544.24" stroke="rgba(224, 225, 221, 1)" stroke-width="2"></path></g><defs><mask id="SvgjsMask1006"><rect width="1500" height="560" fill="#ffffff"></rect></mask></defs></svg>