<svg xmlns="http://www.w3.org/2000/svg" version="1.1" xmlns:xlink="http://www.w3.org/1999/xlink" xmlns:svgjs="http://svgjs.dev/svgjs" width="1500" height="560" preserveAspectRatio="none" viewBox="0 0 1500 560"><g mask="url(&quot;#SvgjsMask1010&quot;)" fill="none"><rect width="1500" height="560" x="0" y="0" fill="rgba(13, 27, 42, 1)"></rect><path d="M-99.72 390.89L-99.72 390.89" stroke="#132e65" stroke-width="1.5"></path><path d="M-99.72 390.89L-108.74 510.81" stroke="#132e65" stroke-width="1.5"></path><path d="M-99.72 390.89L95.82 352.86" stroke="#132e65" stroke-width="1.5"></path><path d="M-99.72 390.89L105.32 539.82" stroke="#132e65" stroke-width="1.5"></path><path d="M-99.72 390.89L-107.99 694.05" stroke="#132e65" stroke-width="1.5"></path><path d="M-99.72 390.89L207.26 490.71" stroke="#132e65" stroke-width="1.5"></path><path d="M-108.74 510.81L-108.74 510.81" stroke="#132e65" stroke-width="1.5"></path><path d="M-108.74 510.81L-107.99 694.05" stroke="#132e65" stroke-width="1.5"></path><path d="M-108.74 510.81L105.32 539.82" stroke="#132e65" stroke-width="1.5"></path><path d="M-107.99 694.05L-107.99 694.05" stroke="#132e65" stroke-width="1.5"></path><path d="M-107.99 694.05L90.42 656.06" stroke="#132e65" stroke-width="1.5"></path><path d="M95.82 352.86L95.82 352.86" stroke="#132e65" stroke-width="1.5"></path><path d="M95.82 352.86L237.09 411.98" stroke="#132e65" stroke-width="1.5"></path><path d="M95.82 352.86L207.26 490.71" stroke="#132e65" stroke-width="1.5"></path><path d="M95.82 352.86L105.32 539.82" stroke="#132e65" stroke-width="1.5"></path><path d="M105.32 539.82L105.32 539.82" stroke="#132e65" stroke-width="1.5"></path><path d="M105.32 539.82L207.26 490.71" stroke="#132e65" stroke-width="1.5"></path><path d="M105.32 539.82L90.42 656.06" stroke="#132e65" stroke-width="1.5"></path><path d="M105.32 539.82L227.64 642.64" stroke="#132e65" stroke-width="1.5"></path><path d="M105.32 539.82L237.09 411.98" stroke="#132e65" stroke-width="1.5"></path><path d="M90.42 656.06L90.42 656.06" stroke="#132e65" stroke-width="1.5"></path><path d="M90.42 656.06L227.64 642.64" stroke="#132e65" stroke-width="1.5"></path><path d="M90.42 656.06L207.26 490.71" stroke="#132e65" stroke-width="1.5"></path><path d="M237.09 411.98L237.09 411.98" stroke="#132e65" stroke-width="1.5"></path><path d="M237.09 411.98L207.26 490.71" stroke="#132e65" stroke-width="1.5"></path><path d="M237.09 411.98L368.29 387.35" stroke="#132e65" stroke-width="1.5"></path><path d="M237.09 411.98L403.86 559.54" stroke="#132e65" stroke-width="1.5"></path><path d="M237.09 411.98L227.64 642.64" stroke="#132e65" stroke-width="1.5"></path><path d="M207.26 490.71L207.26 490.71" stroke="#132e65" stroke-width="1.5"></path><path d="M207.26 490.71L227.64 642.64" stroke="#132e65" stroke-width="1.5"></path><path d="M207.26 490.71L368.29 387.35" stroke="#132e65" stroke-width="1.5"></path><path d="M227.64 642.64L227.64 642.64" stroke="#132e65" stroke-width="1.5"></path><path d="M227.64 642.64L370.74 657.09" stroke="#132e65" stroke-width="1.5"></path><path d="M227.64 642.64L403.86 559.54" stroke="#132e65" stroke-width="1.5"></path><path d="M368.29 387.35L368.29 387.35" stroke="#132e65" stroke-width="1.5"></path><path d="M368.29 387.35L488.05 392.22" stroke="#132e65" stroke-width="1.5"></path><path d="M368.29 387.35L403.86 559.54" stroke="#132e65" stroke-width="1.5"></path><path d="M368.29 387.35L370.74 657.09" stroke="#132e65" stroke-width="1.5"></path><path d="M403.86 559.54L403.86 559.54" stroke="#132e65" stroke-width="1.5"></path><path d="M403.86 559.54L370.74 657.09" stroke="#132e65" stroke-width="1.5"></path><path d="M370.74 657.09L370.74 657.09" stroke="#132e65" stroke-width="1.5"></path><path d="M370.74 657.09L207.26 490.71" stroke="#132e65" stroke-width="1.5"></path><path d="M488.05 392.22L488.05 392.22" stroke="#132e65" stroke-width="1.5"></path><path d="M488.05 392.22L403.86 559.54" stroke="#132e65" stroke-width="1.5"></path><path d="M488.05 392.22L682.08 362.1" stroke="#132e65" stroke-width="1.5"></path><path d="M488.05 392.22L237.09 411.98" stroke="#132e65" stroke-width="1.5"></path><path d="M684.1 228.62L684.1 228.62" stroke="#132e65" stroke-width="1.5"></path><path d="M684.1 228.62L682.08 362.1" stroke="#132e65" stroke-width="1.5"></path><path d="M684.1 228.62L838.07 360.96" stroke="#132e65" stroke-width="1.5"></path><path d="M684.1 228.62L488.05 392.22" stroke="#132e65" stroke-width="1.5"></path><path d="M682.08 362.1L682.08 362.1" stroke="#132e65" stroke-width="1.5"></path><path d="M682.08 362.1L838.07 360.96" stroke="#132e65" stroke-width="1.5"></path><path d="M682.08 362.1L705.46 543.85" stroke="#132e65" stroke-width="1.5"></path><path d="M682.08 362.1L837.5 541.24" stroke="#132e65" stroke-width="1.5"></path><path d="M705.46 543.85L705.46 543.85" stroke="#132e65" stroke-width="1.5"></path><path d="M705.46 543.85L837.5 541.24" stroke="#132e65" stroke-width="1.5"></path><path d="M705.46 543.85L669.3 688.96" stroke="#132e65" stroke-width="1.5"></path><path d="M705.46 543.85L798.36 696.35" stroke="#132e65" stroke-width="1.5"></path><path d="M705.46 543.85L838.07 360.96" stroke="#132e65" stroke-width="1.5"></path><path d="M669.3 688.96L669.3 688.96" stroke="#132e65" stroke-width="1.5"></path><path d="M669.3 688.96L798.36 696.35" stroke="#132e65" stroke-width="1.5"></path><path d="M838.07 360.96L838.07 360.96" stroke="#132e65" stroke-width="1.5"></path><path d="M838.07 360.96L993.24 345.91" stroke="#132e65" stroke-width="1.5"></path><path d="M837.5 541.24L837.5 541.24" stroke="#132e65" stroke-width="1.5"></path><path d="M837.5 541.24L950.01 561.65" stroke="#132e65" stroke-width="1.5"></path><path d="M837.5 541.24L798.36 696.35" stroke="#132e65" stroke-width="1.5"></path><path d="M837.5 541.24L838.07 360.96" stroke="#132e65" stroke-width="1.5"></path><path d="M798.36 696.35L798.36 696.35" stroke="#132e65" stroke-width="1.5"></path><path d="M798.36 696.35L950.01 561.65" stroke="#132e65" stroke-width="1.5"></path><path d="M798.36 696.35L1010.76 650.07" stroke="#132e65" stroke-width="1.5"></path><path d="M987.94 -98.86L987.94 -98.86" stroke="#132e65" stroke-width="1.5"></path><path d="M987.94 -98.86L980.01 41.55" stroke="#132e65" stroke-width="1.5"></path><path d="M987.94 -98.86L1134.56 -48.99" stroke="#132e65" stroke-width="1.5"></path><path d="M980.01 41.55L980.01 41.55" stroke="#132e65" stroke-width="1.5"></path><path d="M980.01 41.55L1134.56 -48.99" stroke="#132e65" stroke-width="1.5"></path><path d="M980.01 41.55L985.39 225.13" stroke="#132e65" stroke-width="1.5"></path><path d="M980.01 41.55L1126.11 218.72" stroke="#132e65" stroke-width="1.5"></path><path d="M980.01 41.55L1254.15 98.75" stroke="#132e65" stroke-width="1.5"></path><path d="M980.01 41.55L993.24 345.91" stroke="#132e65" stroke-width="1.5"></path><path d="M985.39 225.13L985.39 225.13" stroke="#132e65" stroke-width="1.5"></path><path d="M985.39 225.13L993.24 345.91" stroke="#132e65" stroke-width="1.5"></path><path d="M985.39 225.13L1126.11 218.72" stroke="#132e65" stroke-width="1.5"></path><path d="M985.39 225.13L838.07 360.96" stroke="#132e65" stroke-width="1.5"></path><path d="M993.24 345.91L993.24 345.91" stroke="#132e65" stroke-width="1.5"></path><path d="M993.24 345.91L1125.96 383.92" stroke="#132e65" stroke-width="1.5"></path><path d="M993.24 345.91L1126.11 218.72" stroke="#132e65" stroke-width="1.5"></path><path d="M993.24 345.91L1110.28 501.36" stroke="#132e65" stroke-width="1.5"></path><path d="M993.24 345.91L950.01 561.65" stroke="#132e65" stroke-width="1.5"></path><path d="M950.01 561.65L950.01 561.65" stroke="#132e65" stroke-width="1.5"></path><path d="M950.01 561.65L1010.76 650.07" stroke="#132e65" stroke-width="1.5"></path><path d="M950.01 561.65L1110.28 501.36" stroke="#132e65" stroke-width="1.5"></path><path d="M950.01 561.65L1138.13 645.75" stroke="#132e65" stroke-width="1.5"></path><path d="M1010.76 650.07L1010.76 650.07" stroke="#132e65" stroke-width="1.5"></path><path d="M1010.76 650.07L1138.13 645.75" stroke="#132e65" stroke-width="1.5"></path><path d="M1010.76 650.07L1110.28 501.36" stroke="#132e65" stroke-width="1.5"></path><path d="M1010.76 650.07L837.5 541.24" stroke="#132e65" stroke-width="1.5"></path><path d="M1010.76 650.07L1288.45 668.61" stroke="#132e65" stroke-width="1.5"></path><path d="M1134.56 -48.99L1134.56 -48.99" stroke="#132e65" stroke-width="1.5"></path><path d="M1134.56 -48.99L1280.52 -54.15" stroke="#132e65" stroke-width="1.5"></path><path d="M1126.11 218.72L1126.11 218.72" stroke="#132e65" stroke-width="1.5"></path><path d="M1126.11 218.72L1252.38 228.3" stroke="#132e65" stroke-width="1.5"></path><path d="M1126.11 218.72L1125.96 383.92" stroke="#132e65" stroke-width="1.5"></path><path d="M1126.11 218.72L1254.15 98.75" stroke="#132e65" stroke-width="1.5"></path><path d="M1125.96 383.92L1125.96 383.92" stroke="#132e65" stroke-width="1.5"></path><path d="M1125.96 383.92L1110.28 501.36" stroke="#132e65" stroke-width="1.5"></path><path d="M1125.96 383.92L1254.02 373.25" stroke="#132e65" stroke-width="1.5"></path><path d="M1110.28 501.36L1110.28 501.36" stroke="#132e65" stroke-width="1.5"></path><path d="M1110.28 501.36L1138.13 645.75" stroke="#132e65" stroke-width="1.5"></path><path d="M1110.28 501.36L1254.02 373.25" stroke="#132e65" stroke-width="1.5"></path><path d="M1138.13 645.75L1138.13 645.75" stroke="#132e65" stroke-width="1.5"></path><path d="M1280.52 -54.15L1280.52 -54.15" stroke="#132e65" stroke-width="1.5"></path><path d="M1280.52 -54.15L1254.15 98.75" stroke="#132e65" stroke-width="1.5"></path><path d="M1280.52 -54.15L1452.36 -54.42" stroke="#132e65" stroke-width="1.5"></path><path d="M1280.52 -54.15L1424.35 80.08" stroke="#132e65" stroke-width="1.5"></path><path d="M1280.52 -54.15L1252.38 228.3" stroke="#132e65" stroke-width="1.5"></path><path d="M1254.15 98.75L1254.15 98.75" stroke="#132e65" stroke-width="1.5"></path><path d="M1254.15 98.75L1252.38 228.3" stroke="#132e65" stroke-width="1.5"></path><path d="M1254.15 98.75L1424.35 80.08" stroke="#132e65" stroke-width="1.5"></path><path d="M1252.38 228.3L1252.38 228.3" stroke="#132e65" stroke-width="1.5"></path><path d="M1252.38 228.3L1254.02 373.25" stroke="#132e65" stroke-width="1.5"></path><path d="M1254.02 373.25L1254.02 373.25" stroke="#132e65" stroke-width="1.5"></path><path d="M1254.02 373.25L1414.07 349.06" stroke="#132e65" stroke-width="1.5"></path><path d="M1254.02 373.25L1310.67 526.66" stroke="#132e65" stroke-width="1.5"></path><path d="M1254.02 373.25L1126.11 218.72" stroke="#132e65" stroke-width="1.5"></path><path d="M1310.67 526.66L1310.67 526.66" stroke="#132e65" stroke-width="1.5"></path><path d="M1310.67 526.66L1413.11 556.11" stroke="#132e65" stroke-width="1.5"></path><path d="M1310.67 526.66L1288.45 668.61" stroke="#132e65" stroke-width="1.5"></path><path d="M1288.45 668.61L1288.45 668.61" stroke="#132e65" stroke-width="1.5"></path><path d="M1288.45 668.61L1138.13 645.75" stroke="#132e65" stroke-width="1.5"></path><path d="M1452.36 -54.42L1452.36 -54.42" stroke="#132e65" stroke-width="1.5"></path><path d="M1452.36 -54.42L1424.35 80.08" stroke="#132e65" stroke-width="1.5"></path><path d="M1452.36 -54.42L1592.89 103.65" stroke="#132e65" stroke-width="1.5"></path><path d="M1424.35 80.08L1424.35 80.08" stroke="#132e65" stroke-width="1.5"></path><path d="M1424.35 80.08L1442.77 228.34" stroke="#132e65" stroke-width="1.5"></path><path d="M1424.35 80.08L1592.89 103.65" stroke="#132e65" stroke-width="1.5"></path><path d="M1442.77 228.34L1442.77 228.34" stroke="#132e65" stroke-width="1.5"></path><path d="M1442.77 228.34L1557.84 238.21" stroke="#132e65" stroke-width="1.5"></path><path d="M1442.77 228.34L1414.07 349.06" stroke="#132e65" stroke-width="1.5"></path><path d="M1442.77 228.34L1252.38 228.3" stroke="#132e65" stroke-width="1.5"></path><path d="M1414.07 349.06L1414.07 349.06" stroke="#132e65" stroke-width="1.5"></path><path d="M1413.11 556.11L1413.11 556.11" stroke="#132e65" stroke-width="1.5"></path><path d="M1413.11 556.11L1460.35 649.59" stroke="#132e65" stroke-width="1.5"></path><path d="M1413.11 556.11L1288.45 668.61" stroke="#132e65" stroke-width="1.5"></path><path d="M1413.11 556.11L1599.87 538.68" stroke="#132e65" stroke-width="1.5"></path><path d="M1413.11 556.11L1414.07 349.06" stroke="#132e65" stroke-width="1.5"></path><path d="M1460.35 649.59L1460.35 649.59" stroke="#132e65" stroke-width="1.5"></path><path d="M1460.35 649.59L1588.11 694.87" stroke="#132e65" stroke-width="1.5"></path><path d="M1460.35 649.59L1288.45 668.61" stroke="#132e65" stroke-width="1.5"></path><path d="M1460.35 649.59L1599.87 538.68" stroke="#132e65" stroke-width="1.5"></path><path d="M1460.35 649.59L1310.67 526.66" stroke="#132e65" stroke-width="1.5"></path><path d="M1460.35 649.59L1574.73 376.86" stroke="#132e65" stroke-width="1.5"></path><path d="M1592.89 103.65L1592.89 103.65" stroke="#132e65" stroke-width="1.5"></path><path d="M1592.89 103.65L1557.84 238.21" stroke="#132e65" stroke-width="1.5"></path><path d="M1592.89 103.65L1442.77 228.34" stroke="#132e65" stroke-width="1.5"></path><path d="M1592.89 103.65L1574.73 376.86" stroke="#132e65" stroke-width="1.5"></path><path d="M1592.89 103.65L1414.07 349.06" stroke="#132e65" stroke-width="1.5"></path><path d="M1557.84 238.21L1557.84 238.21" stroke="#132e65" stroke-width="1.5"></path><path d="M1557.84 238.21L1574.73 376.86" stroke="#132e65" stroke-width="1.5"></path><path d="M1557.84 238.21L1414.07 349.06" stroke="#132e65" stroke-width="1.5"></path><path d="M1557.84 238.21L1424.35 80.08" stroke="#132e65" stroke-width="1.5"></path><path d="M1557.84 238.21L1599.87 538.68" stroke="#132e65" stroke-width="1.5"></path><path d="M1574.73 376.86L1574.73 376.86" stroke="#132e65" stroke-width="1.5"></path><path d="M1574.73 376.86L1414.07 349.06" stroke="#132e65" stroke-width="1.5"></path><path d="M1574.73 376.86L1599.87 538.68" stroke="#132e65" stroke-width="1.5"></path><path d="M1574.73 376.86L1442.77 228.34" stroke="#132e65" stroke-width="1.5"></path><path d="M1574.73 376.86L1413.11 556.11" stroke="#132e65" stroke-width="1.5"></path><path d="M1599.87 538.68L1599.87 538.68" stroke="#132e65" stroke-width="1.5"></path><path d="M1599.87 538.68L1588.11 694.87" stroke="#132e65" stroke-width="1.5"></path><path d="M1588.11 694.87L1588.11 694.87" stroke="#132e65" stroke-width="1.5"></path><path d="M1588.11 694.87L1413.11 556.11" stroke="#132e65" stroke-width="1.5"></path><circle r="5" cx="-99.72" cy="390.89" fill="#132e65"></circle><circle r="5" cx="-108.74" cy="510.81" fill="#132e65"></circle><circle r="5" cx="-107.99" cy="694.05" fill="#132e65"></circle><circle r="5" cx="95.82" cy="352.86" fill="#132e65"></circle><circle r="5" cx="105.32" cy="539.82" fill="#132e65"></circle><circle r="5" cx="90.42" cy="656.06" fill="#132e65"></circle><circle r="5" cx="237.09" cy="411.98" fill="#132e65"></circle><circle r="5" cx="207.26" cy="490.71" fill="#132e65"></circle><circle r="5" cx="227.64" cy="642.64" fill="#132e65"></circle><circle r="5" cx="368.29" cy="387.35" fill="#132e65"></circle><circle r="5" cx="403.86" cy="559.54" fill="#132e65"></circle><circle r="5" cx="370.74" cy="657.09" fill="#132e65"></circle><circle r="5" cx="488.05" cy="392.22" fill="#132e65"></circle><circle r="5" cx="684.1" cy="228.62" fill="#132e65"></circle><circle r="5" cx="682.08" cy="362.1" fill="#132e65"></circle><circle r="5" cx="705.46" cy="543.85" fill="#132e65"></circle><circle r="5" cx="669.3" cy="688.96" fill="#132e65"></circle><circle r="5" cx="838.07" cy="360.96" fill="#132e65"></circle><circle r="5" cx="837.5" cy="541.24" fill="#132e65"></circle><circle r="5" cx="798.36" cy="696.35" fill="#132e65"></circle><circle r="5" cx="987.94" cy="-98.86" fill="#132e65"></circle><circle r="5" cx="980.01" cy="41.55" fill="#132e65"></circle><circle r="5" cx="985.39" cy="225.13" fill="#132e65"></circle><circle r="5" cx="993.24" cy="345.91" fill="#132e65"></circle><circle r="5" cx="950.01" cy="561.65" fill="#132e65"></circle><circle r="5" cx="1010.76" cy="650.07" fill="#132e65"></circle><circle r="5" cx="1134.56" cy="-48.99" fill="#132e65"></circle><circle r="5" cx="1126.11" cy="218.72" fill="#132e65"></circle><circle r="5" cx="1125.96" cy="383.92" fill="#132e65"></circle><circle r="5" cx="1110.28" cy="501.36" fill="#132e65"></circle><circle r="5" cx="1138.13" cy="645.75" fill="#132e65"></circle><circle r="5" cx="1280.52" cy="-54.15" fill="#132e65"></circle><circle r="5" cx="1254.15" cy="98.75" fill="#132e65"></circle><circle r="5" cx="1252.38" cy="228.3" fill="#132e65"></circle><circle r="5" cx="1254.02" cy="373.25" fill="#132e65"></circle><circle r="5" cx="1310.67" cy="526.66" fill="#132e65"></circle><circle r="5" cx="1288.45" cy="668.61" fill="#132e65"></circle><circle r="5" cx="1452.36" cy="-54.42" fill="#132e65"></circle><circle r="5" cx="1424.35" cy="80.08" fill="#132e65"></circle><circle r="5" cx="1442.77" cy="228.34" fill="#132e65"></circle><circle r="5" cx="1414.07" cy="349.06" fill="#132e65"></circle><circle r="5" cx="1413.11" cy="556.11" fill="#132e65"></circle><circle r="5" cx="1460.35" cy="649.59" fill="#132e65"></circle><circle r="5" cx="1592.89" cy="103.65" fill="#132e65"></circle><circle r="5" cx="1557.84" cy="238.21" fill="#132e65"></circle><circle r="5" cx="1574.73" cy="376.86" fill="#132e65"></circle><circle r="5" cx="1599.87" cy="538.68" fill="#132e65"></circle><circle r="5" cx="1588.11" cy="694.87" fill="#132e65"></circle><path d="M248.77 704.67L248.77 704.67" stroke="hsl(228.5, 77.2%, 51.5%)" stroke-width="1.5"></path><path d="M248.77 704.67L361.06 638" stroke="hsl(228.5, 77.2%, 51.5%)" stroke-width="1.5"></path><path d="M248.77 704.67L381.78 555.33" stroke="hsl(228.5, 77.2%, 51.5%)" stroke-width="1.5"></path><path d="M248.77 704.67L235.44 502.06" stroke="hsl(228.5, 77.2%, 51.5%)" stroke-width="1.5"></path><path d="M248.77 704.67L48.08 646.9" stroke="hsl(228.5, 77.2%, 51.5%)" stroke-width="1.5"></path><path d="M248.77 704.67L63.98 533.49" stroke="hsl(228.5, 77.2%, 51.5%)" stroke-width="1.5"></path><path d="M248.77 704.67L532.2 660.34" stroke="hsl(228.5, 77.2%, 51.5%)" stroke-width="1.5"></path><path d="M800.2 676.63L800.2 676.63" stroke="hsl(228.5, 77.2%, 51.5%)" stroke-width="1.5"></path><path d="M800.2 676.63L704.63 701.84" stroke="hsl(228.5, 77.2%, 51.5%)" stroke-width="1.5"></path><path d="M800.2 676.63L862.3 547.41" stroke="hsl(228.5, 77.2%, 51.5%)" stroke-width="1.5"></path><path d="M1271.72 346.75L1271.72 346.75" stroke="hsl(228.5, 77.2%, 51.5%)" stroke-width="1.5"></path><path d="M1271.72 346.75L1272.2 249.43" stroke="hsl(228.5, 77.2%, 51.5%)" stroke-width="1.5"></path><path d="M1271.72 346.75L1395.13 353.36" stroke="hsl(228.5, 77.2%, 51.5%)" stroke-width="1.5"></path><path d="M1395.13 353.36L1395.13 353.36" stroke="hsl(228.5, 77.2%, 51.5%)" stroke-width="1.5"></path><path d="M1395.13 353.36L1400.85 224.52" stroke="hsl(228.5, 77.2%, 51.5%)" stroke-width="1.5"></path><path d="M1395.13 353.36L1539.66 372.03" stroke="hsl(228.5, 77.2%, 51.5%)" stroke-width="1.5"></path><path d="M1395.13 353.36L1272.2 249.43" stroke="hsl(228.5, 77.2%, 51.5%)" stroke-width="1.5"></path><path d="M1551.45 219.25L1551.45 219.25" stroke="hsl(228.5, 77.2%, 51.5%)" stroke-width="1.5"></path><path d="M1551.45 219.25L1573.32 88.77" stroke="hsl(228.5, 77.2%, 51.5%)" stroke-width="1.5"></path><path d="M1551.45 219.25L1400.85 224.52" stroke="hsl(228.5, 77.2%, 51.5%)" stroke-width="1.5"></path><path d="M-91.15 532.35L-91.15 532.35" stroke="hsl(228.5, 77.2%, 51.5%)" stroke-width="1.5"></path><path d="M-91.15 532.35L-100.87 664.25" stroke="hsl(228.5, 77.2%, 51.5%)" stroke-width="1.5"></path><path d="M-91.15 532.35L63.98 533.49" stroke="hsl(228.5, 77.2%, 51.5%)" stroke-width="1.5"></path><path d="M-91.15 532.35L48.08 646.9" stroke="hsl(228.5, 77.2%, 51.5%)" stroke-width="1.5"></path><path d="M-91.15 532.35L235.44 502.06" stroke="hsl(228.5, 77.2%, 51.5%)" stroke-width="1.5"></path><path d="M-100.87 664.25L-100.87 664.25" stroke="hsl(228.5, 77.2%, 51.5%)" stroke-width="1.5"></path><path d="M-100.87 664.25L48.08 646.9" stroke="hsl(228.5, 77.2%, 51.5%)" stroke-width="1.5"></path><path d="M-100.87 664.25L63.98 533.49" stroke="hsl(228.5, 77.2%, 51.5%)" stroke-width="1.5"></path><path d="M-100.87 664.25L248.77 704.67" stroke="hsl(228.5, 77.2%, 51.5%)" stroke-width="1.5"></path><path d="M-100.87 664.25L235.44 502.06" stroke="hsl(228.5, 77.2%, 51.5%)" stroke-width="1.5"></path><path d="M63.98 533.49L63.98 533.49" stroke="hsl(228.5, 77.2%, 51.5%)" stroke-width="1.5"></path><path d="M63.98 533.49L48.08 646.9" stroke="hsl(228.5, 77.2%, 51.5%)" stroke-width="1.5"></path><path d="M63.98 533.49L235.44 502.06" stroke="hsl(228.5, 77.2%, 51.5%)" stroke-width="1.5"></path><path d="M48.08 646.9L48.08 646.9" stroke="hsl(228.5, 77.2%, 51.5%)" stroke-width="1.5"></path><path d="M235.44 502.06L235.44 502.06" stroke="hsl(228.5, 77.2%, 51.5%)" stroke-width="1.5"></path><path d="M235.44 502.06L381.78 555.33" stroke="hsl(228.5, 77.2%, 51.5%)" stroke-width="1.5"></path><path d="M235.44 502.06L361.06 638" stroke="hsl(228.5, 77.2%, 51.5%)" stroke-width="1.5"></path><path d="M381.78 555.33L381.78 555.33" stroke="hsl(228.5, 77.2%, 51.5%)" stroke-width="1.5"></path><path d="M381.78 555.33L361.06 638" stroke="hsl(228.5, 77.2%, 51.5%)" stroke-width="1.5"></path><path d="M381.78 555.33L488.99 523.16" stroke="hsl(228.5, 77.2%, 51.5%)" stroke-width="1.5"></path><path d="M381.78 555.33L532.2 660.34" stroke="hsl(228.5, 77.2%, 51.5%)" stroke-width="1.5"></path><path d="M361.06 638L361.06 638" stroke="hsl(228.5, 77.2%, 51.5%)" stroke-width="1.5"></path><path d="M361.06 638L488.99 523.16" stroke="hsl(228.5, 77.2%, 51.5%)" stroke-width="1.5"></path><path d="M517.69 404.68L517.69 404.68" stroke="hsl(228.5, 77.2%, 51.5%)" stroke-width="1.5"></path><path d="M517.69 404.68L488.99 523.16" stroke="hsl(228.5, 77.2%, 51.5%)" stroke-width="1.5"></path><path d="M517.69 404.68L666.87 398.62" stroke="hsl(228.5, 77.2%, 51.5%)" stroke-width="1.5"></path><path d="M517.69 404.68L381.78 555.33" stroke="hsl(228.5, 77.2%, 51.5%)" stroke-width="1.5"></path><path d="M488.99 523.16L488.99 523.16" stroke="hsl(228.5, 77.2%, 51.5%)" stroke-width="1.5"></path><path d="M532.2 660.34L532.2 660.34" stroke="hsl(228.5, 77.2%, 51.5%)" stroke-width="1.5"></path><path d="M532.2 660.34L488.99 523.16" stroke="hsl(228.5, 77.2%, 51.5%)" stroke-width="1.5"></path><path d="M532.2 660.34L361.06 638" stroke="hsl(228.5, 77.2%, 51.5%)" stroke-width="1.5"></path><path d="M532.2 660.34L673.82 554.07" stroke="hsl(228.5, 77.2%, 51.5%)" stroke-width="1.5"></path><path d="M532.2 660.34L704.63 701.84" stroke="hsl(228.5, 77.2%, 51.5%)" stroke-width="1.5"></path><path d="M666.87 398.62L666.87 398.62" stroke="hsl(228.5, 77.2%, 51.5%)" stroke-width="1.5"></path><path d="M666.87 398.62L673.82 554.07" stroke="hsl(228.5, 77.2%, 51.5%)" stroke-width="1.5"></path><path d="M673.82 554.07L673.82 554.07" stroke="hsl(228.5, 77.2%, 51.5%)" stroke-width="1.5"></path><path d="M673.82 554.07L704.63 701.84" stroke="hsl(228.5, 77.2%, 51.5%)" stroke-width="1.5"></path><path d="M673.82 554.07L800.2 676.63" stroke="hsl(228.5, 77.2%, 51.5%)" stroke-width="1.5"></path><path d="M673.82 554.07L488.99 523.16" stroke="hsl(228.5, 77.2%, 51.5%)" stroke-width="1.5"></path><path d="M704.63 701.84L704.63 701.84" stroke="hsl(228.5, 77.2%, 51.5%)" stroke-width="1.5"></path><path d="M830.84 392.93L830.84 392.93" stroke="hsl(228.5, 77.2%, 51.5%)" stroke-width="1.5"></path><path d="M830.84 392.93L981.49 348.17" stroke="hsl(228.5, 77.2%, 51.5%)" stroke-width="1.5"></path><path d="M830.84 392.93L862.3 547.41" stroke="hsl(228.5, 77.2%, 51.5%)" stroke-width="1.5"></path><path d="M830.84 392.93L666.87 398.62" stroke="hsl(228.5, 77.2%, 51.5%)" stroke-width="1.5"></path><path d="M830.84 392.93L989.52 489.45" stroke="hsl(228.5, 77.2%, 51.5%)" stroke-width="1.5"></path><path d="M830.84 392.93L673.82 554.07" stroke="hsl(228.5, 77.2%, 51.5%)" stroke-width="1.5"></path><path d="M862.3 547.41L862.3 547.41" stroke="hsl(228.5, 77.2%, 51.5%)" stroke-width="1.5"></path><path d="M862.3 547.41L989.52 489.45" stroke="hsl(228.5, 77.2%, 51.5%)" stroke-width="1.5"></path><path d="M981.49 348.17L981.49 348.17" stroke="hsl(228.5, 77.2%, 51.5%)" stroke-width="1.5"></path><path d="M981.49 348.17L1104.42 356.06" stroke="hsl(228.5, 77.2%, 51.5%)" stroke-width="1.5"></path><path d="M981.49 348.17L989.52 489.45" stroke="hsl(228.5, 77.2%, 51.5%)" stroke-width="1.5"></path><path d="M981.49 348.17L1109.02 237.11" stroke="hsl(228.5, 77.2%, 51.5%)" stroke-width="1.5"></path><path d="M981.49 348.17L1094.72 536.69" stroke="hsl(228.5, 77.2%, 51.5%)" stroke-width="1.5"></path><path d="M981.49 348.17L862.3 547.41" stroke="hsl(228.5, 77.2%, 51.5%)" stroke-width="1.5"></path><path d="M989.52 489.45L989.52 489.45" stroke="hsl(228.5, 77.2%, 51.5%)" stroke-width="1.5"></path><path d="M989.52 489.45L1094.72 536.69" stroke="hsl(228.5, 77.2%, 51.5%)" stroke-width="1.5"></path><path d="M962.68 679.83L962.68 679.83" stroke="hsl(228.5, 77.2%, 51.5%)" stroke-width="1.5"></path><path d="M962.68 679.83L800.2 676.63" stroke="hsl(228.5, 77.2%, 51.5%)" stroke-width="1.5"></path><path d="M962.68 679.83L862.3 547.41" stroke="hsl(228.5, 77.2%, 51.5%)" stroke-width="1.5"></path><path d="M962.68 679.83L989.52 489.45" stroke="hsl(228.5, 77.2%, 51.5%)" stroke-width="1.5"></path><path d="M962.68 679.83L1094.72 536.69" stroke="hsl(228.5, 77.2%, 51.5%)" stroke-width="1.5"></path><path d="M1109.02 237.11L1109.02 237.11" stroke="hsl(228.5, 77.2%, 51.5%)" stroke-width="1.5"></path><path d="M1109.02 237.11L1104.42 356.06" stroke="hsl(228.5, 77.2%, 51.5%)" stroke-width="1.5"></path><path d="M1109.02 237.11L1272.2 249.43" stroke="hsl(228.5, 77.2%, 51.5%)" stroke-width="1.5"></path><path d="M1104.42 356.06L1104.42 356.06" stroke="hsl(228.5, 77.2%, 51.5%)" stroke-width="1.5"></path><path d="M1104.42 356.06L1271.72 346.75" stroke="hsl(228.5, 77.2%, 51.5%)" stroke-width="1.5"></path><path d="M1104.42 356.06L989.52 489.45" stroke="hsl(228.5, 77.2%, 51.5%)" stroke-width="1.5"></path><path d="M1104.42 356.06L1094.72 536.69" stroke="hsl(228.5, 77.2%, 51.5%)" stroke-width="1.5"></path><path d="M1094.72 536.69L1094.72 536.69" stroke="hsl(228.5, 77.2%, 51.5%)" stroke-width="1.5"></path><path d="M1094.72 536.69L1161.66 667.32" stroke="hsl(228.5, 77.2%, 51.5%)" stroke-width="1.5"></path><path d="M1094.72 536.69L1263.88 543.05" stroke="hsl(228.5, 77.2%, 51.5%)" stroke-width="1.5"></path><path d="M1161.66 667.32L1161.66 667.32" stroke="hsl(228.5, 77.2%, 51.5%)" stroke-width="1.5"></path><path d="M1161.66 667.32L1266.63 711.47" stroke="hsl(228.5, 77.2%, 51.5%)" stroke-width="1.5"></path><path d="M1243.8 103.71L1243.8 103.71" stroke="hsl(228.5, 77.2%, 51.5%)" stroke-width="1.5"></path><path d="M1243.8 103.71L1272.2 249.43" stroke="hsl(228.5, 77.2%, 51.5%)" stroke-width="1.5"></path><path d="M1243.8 103.71L1412.11 61.52" stroke="hsl(228.5, 77.2%, 51.5%)" stroke-width="1.5"></path><path d="M1243.8 103.71L1109.02 237.11" stroke="hsl(228.5, 77.2%, 51.5%)" stroke-width="1.5"></path><path d="M1272.2 249.43L1272.2 249.43" stroke="hsl(228.5, 77.2%, 51.5%)" stroke-width="1.5"></path><path d="M1272.2 249.43L1400.85 224.52" stroke="hsl(228.5, 77.2%, 51.5%)" stroke-width="1.5"></path><path d="M1263.88 543.05L1263.88 543.05" stroke="hsl(228.5, 77.2%, 51.5%)" stroke-width="1.5"></path><path d="M1263.88 543.05L1161.66 667.32" stroke="hsl(228.5, 77.2%, 51.5%)" stroke-width="1.5"></path><path d="M1263.88 543.05L1266.63 711.47" stroke="hsl(228.5, 77.2%, 51.5%)" stroke-width="1.5"></path><path d="M1263.88 543.05L1271.72 346.75" stroke="hsl(228.5, 77.2%, 51.5%)" stroke-width="1.5"></path><path d="M1263.88 543.05L1461.59 515.22" stroke="hsl(228.5, 77.2%, 51.5%)" stroke-width="1.5"></path><path d="M1266.63 711.47L1266.63 711.47" stroke="hsl(228.5, 77.2%, 51.5%)" stroke-width="1.5"></path><path d="M1266.63 711.47L1441.66 657.92" stroke="hsl(228.5, 77.2%, 51.5%)" stroke-width="1.5"></path><path d="M1266.63 711.47L1094.72 536.69" stroke="hsl(228.5, 77.2%, 51.5%)" stroke-width="1.5"></path><path d="M1266.63 711.47L1461.59 515.22" stroke="hsl(228.5, 77.2%, 51.5%)" stroke-width="1.5"></path><path d="M1433.22 -53.88L1433.22 -53.88" stroke="hsl(228.5, 77.2%, 51.5%)" stroke-width="1.5"></path><path d="M1433.22 -53.88L1412.11 61.52" stroke="hsl(228.5, 77.2%, 51.5%)" stroke-width="1.5"></path><path d="M1433.22 -53.88L1550.98 -103.1" stroke="hsl(228.5, 77.2%, 51.5%)" stroke-width="1.5"></path><path d="M1412.11 61.52L1412.11 61.52" stroke="hsl(228.5, 77.2%, 51.5%)" stroke-width="1.5"></path><path d="M1412.11 61.52L1400.85 224.52" stroke="hsl(228.5, 77.2%, 51.5%)" stroke-width="1.5"></path><path d="M1412.11 61.52L1573.32 88.77" stroke="hsl(228.5, 77.2%, 51.5%)" stroke-width="1.5"></path><path d="M1400.85 224.52L1400.85 224.52" stroke="hsl(228.5, 77.2%, 51.5%)" stroke-width="1.5"></path><path d="M1461.59 515.22L1461.59 515.22" stroke="hsl(228.5, 77.2%, 51.5%)" stroke-width="1.5"></path><path d="M1461.59 515.22L1576.85 549.08" stroke="hsl(228.5, 77.2%, 51.5%)" stroke-width="1.5"></path><path d="M1461.59 515.22L1441.66 657.92" stroke="hsl(228.5, 77.2%, 51.5%)" stroke-width="1.5"></path><path d="M1461.59 515.22L1539.66 372.03" stroke="hsl(228.5, 77.2%, 51.5%)" stroke-width="1.5"></path><path d="M1441.66 657.92L1441.66 657.92" stroke="hsl(228.5, 77.2%, 51.5%)" stroke-width="1.5"></path><path d="M1441.66 657.92L1545.54 684.87" stroke="hsl(228.5, 77.2%, 51.5%)" stroke-width="1.5"></path><path d="M1441.66 657.92L1576.85 549.08" stroke="hsl(228.5, 77.2%, 51.5%)" stroke-width="1.5"></path><path d="M1441.66 657.92L1263.88 543.05" stroke="hsl(228.5, 77.2%, 51.5%)" stroke-width="1.5"></path><path d="M1550.98 -103.1L1550.98 -103.1" stroke="hsl(228.5, 77.2%, 51.5%)" stroke-width="1.5"></path><path d="M1550.98 -103.1L1573.32 88.77" stroke="hsl(228.5, 77.2%, 51.5%)" stroke-width="1.5"></path><path d="M1550.98 -103.1L1412.11 61.52" stroke="hsl(228.5, 77.2%, 51.5%)" stroke-width="1.5"></path><path d="M1550.98 -103.1L1551.45 219.25" stroke="hsl(228.5, 77.2%, 51.5%)" stroke-width="1.5"></path><path d="M1573.32 88.77L1573.32 88.77" stroke="hsl(228.5, 77.2%, 51.5%)" stroke-width="1.5"></path><path d="M1573.32 88.77L1433.22 -53.88" stroke="hsl(228.5, 77.2%, 51.5%)" stroke-width="1.5"></path><path d="M1573.32 88.77L1400.85 224.52" stroke="hsl(228.5, 77.2%, 51.5%)" stroke-width="1.5"></path><path d="M1573.32 88.77L1539.66 372.03" stroke="hsl(228.5, 77.2%, 51.5%)" stroke-width="1.5"></path><path d="M1539.66 372.03L1539.66 372.03" stroke="hsl(228.5, 77.2%, 51.5%)" stroke-width="1.5"></path><path d="M1576.85 549.08L1576.85 549.08" stroke="hsl(228.5, 77.2%, 51.5%)" stroke-width="1.5"></path><path d="M1576.85 549.08L1545.54 684.87" stroke="hsl(228.5, 77.2%, 51.5%)" stroke-width="1.5"></path><path d="M1545.54 684.87L1545.54 684.87" stroke="hsl(228.5, 77.2%, 51.5%)" stroke-width="1.5"></path><path d="M1545.54 684.87L1461.59 515.22" stroke="hsl(228.5, 77.2%, 51.5%)" stroke-width="1.5"></path><circle r="25" cx="248.77" cy="704.67" fill="url(&quot;#SvgjsRadialGradient1011&quot;)"></circle><circle r="25" cx="800.2" cy="676.63" fill="url(&quot;#SvgjsRadialGradient1011&quot;)"></circle><circle r="25" cx="1271.72" cy="346.75" fill="url(&quot;#SvgjsRadialGradient1011&quot;)"></circle><circle r="25" cx="1395.13" cy="353.36" fill="url(&quot;#SvgjsRadialGradient1011&quot;)"></circle><circle r="25" cx="1551.45" cy="219.25" fill="url(&quot;#SvgjsRadialGradient1011&quot;)"></circle><circle r="5" cx="-91.15" cy="532.35" fill="#8b9ad9"></circle><circle r="5" cx="-100.87" cy="664.25" fill="#8b9ad9"></circle><circle r="5" cx="63.98" cy="533.49" fill="#8b9ad9"></circle><circle r="5" cx="48.08" cy="646.9" fill="#8b9ad9"></circle><circle r="5" cx="235.44" cy="502.06" fill="#8b9ad9"></circle><circle r="5" cx="381.78" cy="555.33" fill="#8b9ad9"></circle><circle r="5" cx="361.06" cy="638" fill="#8b9ad9"></circle><circle r="5" cx="517.69" cy="404.68" fill="#8b9ad9"></circle><circle r="5" cx="488.99" cy="523.16" fill="#8b9ad9"></circle><circle r="5" cx="532.2" cy="660.34" fill="#8b9ad9"></circle><circle r="5" cx="666.87" cy="398.62" fill="#8b9ad9"></circle><circle r="5" cx="673.82" cy="554.07" fill="#8b9ad9"></circle><circle r="5" cx="704.63" cy="701.84" fill="#8b9ad9"></circle><circle r="5" cx="830.84" cy="392.93" fill="#8b9ad9"></circle><circle r="5" cx="862.3" cy="547.41" fill="#8b9ad9"></circle><circle r="5" cx="981.49" cy="348.17" fill="#8b9ad9"></circle><circle r="5" cx="989.52" cy="489.45" fill="#8b9ad9"></circle><circle r="5" cx="962.68" cy="679.83" fill="#8b9ad9"></circle><circle r="5" cx="1109.02" cy="237.11" fill="#8b9ad9"></circle><circle r="5" cx="1104.42" cy="356.06" fill="#8b9ad9"></circle><circle r="5" cx="1094.72" cy="536.69" fill="#8b9ad9"></circle><circle r="5" cx="1161.66" cy="667.32" fill="#8b9ad9"></circle><circle r="5" cx="1243.8" cy="103.71" fill="#8b9ad9"></circle><circle r="5" cx="1272.2" cy="249.43" fill="#8b9ad9"></circle><circle r="5" cx="1263.88" cy="543.05" fill="#8b9ad9"></circle><circle r="5" cx="1266.63" cy="711.47" fill="#8b9ad9"></circle><circle r="5" cx="1433.22" cy="-53.88" fill="#8b9ad9"></circle><circle r="5" cx="1412.11" cy="61.52" fill="#8b9ad9"></circle><circle r="5" cx="1400.85" cy="224.52" fill="#8b9ad9"></circle><circle r="5" cx="1461.59" cy="515.22" fill="#8b9ad9"></circle><circle r="5" cx="1441.66" cy="657.92" fill="#8b9ad9"></circle><circle r="5" cx="1550.98" cy="-103.1" fill="#8b9ad9"></circle><circle r="5" cx="1573.32" cy="88.77" fill="#8b9ad9"></circle><circle r="5" cx="1539.66" cy="372.03" fill="#8b9ad9"></circle><circle r="5" cx="1576.85" cy="549.08" fill="#8b9ad9"></circle><circle r="5" cx="1545.54" cy="684.87" fill="#8b9ad9"></circle></g><defs><mask id="SvgjsMask1010"><rect width="1500" height="560" fill="#ffffff"></rect></mask><radialGradient id="SvgjsRadialGradient1011"><stop stop-color="#ffffff" offset="0.1"></stop><stop stop-color="#1735b3" offset="0.2"></stop><stop stop-color="rgba(23, 53, 179, 0)" offset="1"></stop></radialGradient></defs></svg>