<svg xmlns="http://www.w3.org/2000/svg" version="1.1" xmlns:xlink="http://www.w3.org/1999/xlink" xmlns:svgjs="http://svgjs.dev/svgjs" width="1500" height="560" preserveAspectRatio="none" viewBox="0 0 1500 560"><g mask="url(&quot;#SvgjsMask1031&quot;)" fill="none"><rect width="1500" height="560" x="0" y="0" fill="rgba(24, 106, 59, 1)"></rect><path d="M0,408.397C75.231,399.935,145.944,364.561,200.675,312.256C250.053,265.066,269.776,197.548,289.157,132.054C306.233,74.35,314.058,15.639,306.102,-44.011C298.082,-104.137,285.67,-167.4,243.41,-210.916C201.952,-253.606,136.168,-253.54,80.987,-275.817C18.313,-301.119,-35.62,-356.149,-102.994,-350.764C-173.994,-345.09,-233.276,-295.995,-284.591,-246.6C-339.561,-193.687,-399.953,-134.472,-406.654,-58.468C-413.293,16.83,-348.251,75.989,-319.183,145.766C-288.809,218.679,-292.94,310.728,-231.946,360.915C-169.745,412.095,-80.045,417.4,0,408.397" fill="#13542f"></path><path d="M1500 1021.919C1593.226 1014.973 1692.3899999999999 1032.243 1772.047 983.3140000000001 1852.28 934.03 1884.116 838.452 1931.321 756.9780000000001 1983.901 666.226 2069.154 583.636 2064.316 478.86400000000003 2059.395 372.297 1968.686 294.523 1905.981 208.216 1837.1390000000001 113.46100000000001 1786.278-3.066000000000031 1679.392-50.952999999999975 1567.664-101.00900000000001 1432.01-102.92999999999995 1319.564-54.509000000000015 1211.351-7.9109999999999445 1141.872 98.41199999999998 1088.547 203.474 1043.215 292.788 1048.732 394.154 1041.149 494.027 1034.105 586.801 1019.011 678.336 1045.728 767.4590000000001 1075.162 865.645 1111.161 975.798 1200.59 1025.891 1289.472 1075.6779999999999 1398.406 1029.488 1500 1021.919" fill="#1d8047"></path></g><defs><mask id="SvgjsMask1031"><rect width="1500" height="560" fill="#ffffff"></rect></mask></defs></svg>